<svg width="108" height="108" viewBox="0 0 108 108" fill="none" xmlns="http://www.w3.org/2000/svg">
<path d="M32.4313 83.5439L46.2378 82.646L46.7378 91.646L30.4076 92.7144C29.3434 92.784 28.2782 92.5969 27.3015 92.1689L17.5673 87.9034L12.7672 88.8634C11.4919 89.1185 10.1962 88.5313 9.54729 87.4043C8.79565 86.0988 9.11729 84.4394 10.3022 83.5092L19.1341 76.5767C19.5863 76.2218 20.2429 76.3142 20.5795 76.7803L22.2764 79.1298C22.9059 80.0014 23.7733 80.673 24.7748 81.0642L30.2624 83.2078C30.952 83.4772 31.6925 83.592 32.4313 83.5439Z" fill="#F2FE67" stroke="black" stroke-width="3.19501"/>
<path d="M93.9251 55.2287L90.5211 58.3805L90.0168 52.5811L84.0913 51.3203L78.9222 52.9593L85.9824 25.8531L82.8305 23.0795L78.2918 24.3402L69.4665 54.094L57.3633 66.4494L48.538 67.9623L41.9821 73.8878L28.7442 75.0225L20.4232 71.8706L17.2714 67.458L5.04207 76.7875L7.18535 79.8133L13.8673 79.0569L15.7397 80.4271L16.7378 81.4263L18.7378 81.9263L22.2378 83.4263L26.7378 84.4263L37.7378 83.4263L40.7378 87.4271L47.9077 92.7991L60.263 94.9424L75.0138 88.2604L91.1515 73.3835L100.733 60.6499L102.498 52.2029L102.876 41.9908L98.4638 40.0996L95.5641 43.5037L93.9251 55.2287Z" fill="#F2FE67"/>
<path d="M76.6503 61.281L85.5816 28.0119C86.2096 25.6726 84.7501 23.2843 82.3819 22.7759V22.7759C80.2044 22.3086 78.0372 23.6084 77.4242 25.7495L70.0571 51.4842C69.5653 53.2018 68.6877 54.7845 67.4913 56.1114L60.7784 63.5562C58.683 65.88 55.7006 67.2066 52.5716 67.2066V67.2066C49.2066 67.2066 46.0303 68.7616 43.9665 71.4195L42.7502 72.9859C42.1807 73.7194 41.3208 74.1695 40.3935 74.2196L28.9527 74.838C28.232 74.877 27.5113 74.7613 26.839 74.4987L21.3244 72.3445C20.323 71.9533 19.4555 71.2817 18.8261 70.4101L17.1291 68.0606C16.7926 67.5945 16.1359 67.5021 15.6837 67.857L6.85188 74.7895C5.66693 75.7197 5.3453 77.3791 6.09694 78.6846V78.6846C6.74583 79.8116 8.04158 80.3988 9.31681 80.1437L14.1169 79.1837L23.9159 83.4776C24.8512 83.8875 25.8682 84.0766 26.8884 84.0305L40.2378 83.4263C43.3056 88.8055 49.7378 98.0977 63.5384 92.4216C78.6335 86.2132 88.5567 79.0644 100.231 60.0797C101.067 58.7211 101.557 57.1772 101.691 55.5879L102.621 44.5869C102.825 42.1727 100.92 40.1004 98.4975 40.1004V40.1004C96.3647 40.1004 94.5813 41.7214 94.3782 43.8445L93.4531 53.5157C93.3854 54.2238 93.1213 54.899 92.6906 55.4653L91.319 57.2686" stroke="black" stroke-width="3.19501"/>
<path d="M78.4128 53.843L80.9598 52.0546C83.0225 50.6063 85.7355 50.4778 87.9259 51.7246L88.3251 51.9519C90.776 53.347 91.9108 56.2711 91.0427 58.9543V58.9543C90.1916 61.585 88.9709 64.0814 87.4173 66.3686L85.2208 69.6024" stroke="black" stroke-width="3.19501"/>
<path d="M62.4033 69.221L62.4033 14" stroke="black" stroke-width="3.19501"/>
<path d="M35.6768 67.0806L35.6768 20.4327" stroke="black" stroke-width="3.19501"/>
<path d="M49.916 61.7779L49.916 31.3938" stroke="black" stroke-width="3.19501"/>
</svg>
