<svg width="36" height="36" viewBox="0 0 36 36" fill="none" xmlns="http://www.w3.org/2000/svg">
<rect width="36" height="36" rx="8" fill="#F2FE67"/>
<mask id="mask0_8617_96951" style="mask-type:alpha" maskUnits="userSpaceOnUse" x="0" y="0" width="36" height="36">
<path d="M0 8.57568C0 5.57391 0 4.07303 0.584183 2.9265C1.09805 1.91799 1.91799 1.09805 2.9265 0.584183C4.07303 0 5.57391 0 8.57568 0H27.4243C30.4261 0 31.927 0 33.0735 0.584183C34.082 1.09805 34.902 1.91799 35.4158 2.9265C36 4.07303 36 5.57391 36 8.57568V27.4243C36 30.4261 36 31.927 35.4158 33.0735C34.902 34.082 34.082 34.902 33.0735 35.4158C31.927 36 30.4261 36 27.4243 36H8.57568C5.57391 36 4.07303 36 2.9265 35.4158C1.91799 34.902 1.09805 34.082 0.584183 33.0735C0 31.927 0 30.4261 0 27.4243V8.57568Z" fill="#F2FE67"/>
</mask>
<g mask="url(#mask0_8617_96951)">
<path fill-rule="evenodd" clip-rule="evenodd" d="M17.0501 -19.4529C19.4008 -20.4977 22.1403 -19.2893 22.9538 -16.8489L25.17 -10.2003C26.6083 -8.95124 27.4381 -7.13757 27.4381 -5.22628V11.2466C27.4381 12.7271 26.2378 13.9274 24.7573 13.9274C24.7134 13.9274 24.6699 13.9263 24.6265 13.9242V21.0195C24.6265 22.0969 25.3991 23.0193 26.4598 23.2082L27.4386 23.3825C28.5732 23.5845 29.3996 24.5711 29.3996 25.7235C29.3996 26.0048 29.3498 26.2783 29.2571 26.533C29.2649 26.5809 29.2689 26.629 29.2689 26.6773C29.2689 28.4468 23.9703 29.8812 17.4342 29.8812C10.8982 29.8812 5.59961 28.4468 5.59961 26.6773C5.59961 25.1816 9.38561 23.9253 14.5048 23.5724L14.6182 8.31686C13.2838 7.01666 12.4777 5.18025 12.5451 3.16479L12.9012 -7.47799C12.9214 -8.08334 13.151 -8.66292 13.5509 -9.11789L14.7079 -10.4345C14.7654 -10.5 14.7944 -10.5858 14.7883 -10.6728L14.473 -15.1658C14.3446 -16.9947 15.3747 -18.7083 17.0501 -19.4529ZM18.6765 13.3428V25.0225C18.4808 25.0585 18.2619 25.075 18.0236 25.0724C17.562 25.0674 17.0817 24.9915 16.6581 24.8955C16.3356 24.8224 16.0671 24.503 16.0705 24.049L16.1552 12.6551C16.6974 12.9097 17.9305 13.3042 18.6765 13.3428ZM22.0765 13.7312C22.0765 14.3778 22.4846 14.9291 23.0573 15.1415V21.0195C23.0573 22.8575 24.3752 24.4308 26.1847 24.7531L27.1635 24.9274C27.5493 24.9961 27.8304 25.3316 27.8304 25.7235C27.8304 26.1088 27.5685 26.4091 27.2293 26.4656C25.5902 26.7387 22.7473 27.091 20.5521 26.7587C20.4069 26.7367 20.2458 26.5918 20.2458 26.3359V9.52982C20.2458 9.06964 19.8727 8.69659 19.4125 8.69659C16.4148 8.69659 14.0132 6.21331 14.1135 3.21726L14.4695 -7.42552C14.4776 -7.66786 14.5696 -7.89988 14.7296 -8.08202L15.8866 -9.39858C16.2209 -9.77902 16.3891 -10.2774 16.3537 -10.7826L16.0384 -15.2757C15.9562 -16.4459 16.6154 -17.5424 17.6874 -18.0189C19.1916 -18.6874 20.9446 -17.9142 21.4651 -16.3526L23.7395 -9.52949C23.7942 -9.36546 23.8942 -9.22028 24.028 -9.11079C25.1931 -8.15753 25.8688 -6.73165 25.8688 -5.22628V11.2466C25.8688 11.8605 25.3712 12.3581 24.7573 12.3581C24.1434 12.3581 23.6458 11.8605 23.6458 11.2466V-3.98804H22.0765V11.2466L22.0765 11.2576V13.7312Z" fill="black"/>
<path fill-rule="evenodd" clip-rule="evenodd" d="M18.6657 13.3433V25.023C18.47 25.0589 18.251 25.0755 18.0127 25.0729C17.5511 25.0679 17.0709 24.992 16.6473 24.896C16.3248 24.8229 16.0563 24.5034 16.0597 24.0495L16.1444 12.6556C16.6866 12.9102 17.9197 13.3047 18.6657 13.3433ZM22.0657 13.7317C22.0657 14.3783 22.4738 14.9295 23.0465 15.142V21.02C23.0465 22.858 24.3644 24.4313 26.1739 24.7536L27.1526 24.9279C27.5385 24.9966 27.8195 25.3321 27.8195 25.724C27.8195 26.1093 27.5577 26.4096 27.2185 26.4661C25.5794 26.7391 22.7365 27.0915 20.5412 26.7592C20.3961 26.7372 20.2349 26.5923 20.2349 26.3364V9.53032C20.2349 9.07013 19.8619 8.69708 19.4017 8.69708C16.404 8.69708 14.0024 6.2138 14.1026 3.21775L14.4587 -7.42503C14.4668 -7.66736 14.5587 -7.89938 14.7188 -8.08152L15.8758 -9.39809C16.2101 -9.77853 16.3783 -10.2769 16.3428 -10.7821L16.0275 -15.2752C15.9454 -16.4454 16.6046 -17.5419 17.6766 -18.0184C19.1808 -18.6869 20.9338 -17.9138 21.4543 -16.3521L23.7287 -9.529C23.7833 -9.36497 23.8834 -9.21979 24.0172 -9.11029C25.1823 -8.15704 25.858 -6.73116 25.858 -5.22579V11.2471C25.858 11.861 25.3604 12.3586 24.7465 12.3586C24.1326 12.3586 23.6349 11.861 23.6349 11.2471V-3.98755H22.0657V11.2471L22.0657 11.2581V13.7317Z" fill="#F2FE67"/>
</g>
</svg>
