<svg width="140" height="55" viewBox="0 0 140 55" fill="none" xmlns="http://www.w3.org/2000/svg">
<path fill-rule="evenodd" clip-rule="evenodd" d="M12.2758 0.739611C14.7959 -0.397423 17.7329 0.917589 18.605 3.57354L20.9809 10.8091C22.5228 12.1685 23.4124 14.1423 23.4124 16.2223V34.1497C23.4124 35.7609 22.1257 37.0671 20.5385 37.0671C20.4914 37.0671 20.4447 37.066 20.3983 37.0637V44.7855C20.3983 45.958 21.2265 46.9618 22.3637 47.1674L23.413 47.357C24.6294 47.5769 25.5154 48.6506 25.5154 49.9048C25.5154 50.2109 25.462 50.5086 25.3626 50.7858C25.3709 50.8378 25.3752 50.8902 25.3752 50.9428C25.3752 52.8685 19.6948 54.4296 12.6876 54.4296C5.68043 54.4296 0 52.8685 0 50.9428C0 49.315 4.05887 47.9478 9.54699 47.5637L9.66859 30.9612C8.23806 29.5462 7.37378 27.5477 7.44607 25.3543L7.82782 13.7718C7.84953 13.113 8.09569 12.4823 8.52433 11.9871L9.76471 10.5543C9.82642 10.483 9.85747 10.3896 9.85093 10.2949L9.5129 5.40518C9.37531 3.41484 10.4797 1.54995 12.2758 0.739611ZM14.0194 36.4309V49.1419C13.8096 49.181 13.5749 49.199 13.3194 49.1962C12.8245 49.1908 12.3096 49.1082 11.8555 49.0036C11.5098 48.9241 11.222 48.5765 11.2256 48.0825L11.3164 35.6826C11.8976 35.9596 13.2196 36.389 14.0194 36.4309ZM17.6645 36.8536C17.6645 37.5573 18.102 38.1573 18.7159 38.3885V44.7855C18.7159 46.7857 20.1289 48.498 22.0688 48.8487L23.118 49.0384C23.5317 49.1132 23.833 49.4783 23.833 49.9048C23.833 50.3241 23.5523 50.651 23.1886 50.7125C21.4314 51.0096 18.3836 51.3931 16.0301 51.0314C15.8745 51.0074 15.7017 50.8498 15.7017 50.5712V32.2813C15.7017 31.7805 15.3018 31.3745 14.8085 31.3745C11.5947 31.3745 9.02 28.672 9.12747 25.4114L9.50921 13.8289C9.5179 13.5652 9.61645 13.3127 9.78804 13.1144L11.0284 11.6816C11.3868 11.2676 11.5671 10.7252 11.5291 10.1754L11.1911 5.28563C11.1031 4.01204 11.8097 2.81873 12.959 2.30021C14.5716 1.57263 16.4509 2.41409 17.009 4.11359L19.4473 11.5392C19.5059 11.7177 19.6132 11.8757 19.7566 11.9948C21.0057 13.0323 21.7301 14.584 21.7301 16.2223V34.1497C21.7301 34.8177 21.1966 35.3593 20.5385 35.3593C19.8803 35.3593 19.3468 34.8177 19.3468 34.1497V17.5699H17.6645V34.1497L17.6645 34.1616V36.8536Z" fill="black"/>
<path fill-rule="evenodd" clip-rule="evenodd" d="M14.0085 36.4324V49.1435C13.7986 49.1826 13.5639 49.2006 13.3084 49.1978C12.8136 49.1923 12.2987 49.1097 11.8446 49.0052C11.4988 48.9256 11.211 48.578 11.2146 48.084L11.3054 35.6841C11.8867 35.9612 13.2087 36.3905 14.0085 36.4324ZM17.6535 36.8551C17.6535 37.5588 18.091 38.1588 18.705 38.39V44.787C18.705 46.7872 20.1179 48.4995 22.0578 48.8502L23.1071 49.0399C23.5208 49.1147 23.8221 49.4798 23.8221 49.9064C23.8221 50.3257 23.5414 50.6525 23.1777 50.714C21.4204 51.0111 18.3726 51.3946 16.0192 51.0329C15.8636 51.009 15.6908 50.8513 15.6908 50.5728V32.2828C15.6908 31.782 15.2909 31.376 14.7975 31.376C11.5837 31.376 9.00906 28.6735 9.11653 25.4129L9.49827 13.8304C9.50696 13.5667 9.60551 13.3142 9.7771 13.116L11.0175 11.6832C11.3759 11.2691 11.5562 10.7267 11.5182 10.1769L11.1802 5.28717C11.0921 4.01358 11.7988 2.82027 12.9481 2.30174C14.5607 1.57417 16.44 2.41563 16.9981 4.11513L19.4363 11.5407C19.495 11.7192 19.6022 11.8772 19.7457 11.9964C20.9948 13.0338 21.7192 14.5856 21.7192 16.2239V34.1512C21.7192 34.8193 21.1856 35.3609 20.5275 35.3609C19.8694 35.3609 19.3358 34.8193 19.3358 34.1512V17.5714H17.6535V34.1512L17.6535 34.1631V36.8551Z" fill="#F2FE67"/>
<g clip-path="url(#clip0_8540_95488)">
<path d="M39.2395 43.1762C38.43 42.7475 37.8317 42.1759 37.4094 41.3899C36.9871 40.6039 36.7759 39.7108 36.7759 38.6747L36.7407 33.6015H34.4883V30.0646H36.7759V26.5634L41.4215 25.5273L41.3863 30.0646H46.2431V33.6015H41.3511L41.3863 37.8887C41.3863 38.3532 41.4567 38.7819 41.6327 39.0677C41.8086 39.3892 42.0198 39.6393 42.3014 39.7822C42.5829 39.9609 42.8997 40.0323 43.2516 40.0323C43.7443 40.0323 44.2018 39.9251 44.589 39.7108C44.9761 39.4964 45.3632 39.1391 45.7504 38.7104L46.8766 41.7472C46.3487 42.3903 45.6448 42.8904 44.8001 43.2477C43.9555 43.605 43.0404 43.7836 42.1254 43.7836C40.9992 43.8193 40.0489 43.605 39.2395 43.1762Z" fill="black"/>
<path d="M49.1297 27.8496C48.637 27.3852 48.3906 26.7421 48.3906 25.9561C48.3906 25.4559 48.4962 25.0272 48.7074 24.6342C48.9185 24.2412 49.2353 23.9197 49.6576 23.7053C50.0799 23.491 50.5375 23.3838 51.0302 23.3838C51.8396 23.3838 52.4731 23.6339 52.9658 24.0983C53.4586 24.5628 53.7049 25.2058 53.7049 25.9561C53.7049 26.4563 53.5993 26.9207 53.3882 27.3137C53.177 27.7067 52.8603 28.0282 52.4379 28.2426C52.0156 28.457 51.5581 28.5641 51.0302 28.5641C50.2559 28.5641 49.6224 28.314 49.1297 27.8496ZM48.7426 30.0646H53.353V43.3192H48.7426V30.0646Z" fill="black"/>
<path d="M67.0081 30.2429C67.6064 30.5645 68.0639 31.0646 68.4159 31.7077C68.7326 32.3508 68.9086 33.1011 68.9086 33.9942V43.3188H64.263V35.4947C64.263 34.8874 64.1222 34.4229 63.8055 34.0657C63.5239 33.7441 63.1016 33.5655 62.5737 33.5655C62.1513 33.5655 61.7994 33.6727 61.4827 33.8513C61.1659 34.0299 60.9195 34.3158 60.7084 34.673C60.5324 35.0303 60.4268 35.459 60.4268 35.9592V43.2831H55.8164V30.0643H59.6526L60.3916 32.5294H60.4268C60.8844 31.6363 61.4827 30.9575 62.2217 30.4573C62.9608 29.9571 63.8407 29.707 64.7909 29.707C65.6707 29.7428 66.4098 29.9214 67.0081 30.2429Z" fill="black"/>
<path d="M73.9417 48.9638C73.1322 48.7851 72.3932 48.5708 71.7245 48.2492C71.0558 47.9277 70.4927 47.5704 70.0352 47.1417L71.4781 43.6762C71.8301 44.0335 72.2524 44.3193 72.7451 44.5694C73.2378 44.8195 73.7657 44.9981 74.2936 45.141C74.8216 45.2839 75.3847 45.3554 75.9478 45.3554C76.6868 45.3554 77.3555 45.2125 77.9186 44.9624C78.4817 44.7123 78.9041 44.3193 79.2208 43.8192C79.5376 43.319 79.6783 42.7116 79.6783 42.0686V40.961H79.6431C79.2208 41.8185 78.6929 42.4973 77.989 42.9617C77.2851 43.4262 76.5109 43.6762 75.6662 43.6762C74.716 43.6762 73.9065 43.4619 73.273 43.0689C72.6395 42.6759 72.1116 42.1043 71.7245 41.354C71.3373 40.6038 71.1614 39.7463 71.1614 38.746V30.0645H75.807V37.7456C75.807 38.1744 75.8774 38.5674 76.0182 38.8889C76.1589 39.2104 76.3701 39.4605 76.6164 39.6392C76.8628 39.8178 77.1796 39.8892 77.5315 39.8892C77.9186 39.8892 78.2354 39.7821 78.5873 39.6034C78.9041 39.4248 79.1504 39.1747 79.3616 38.8174C79.5376 38.4602 79.6431 38.0672 79.6431 37.6385V30.0645H84.2536V42.2472C84.2536 43.6405 83.9368 44.8909 83.2681 45.927C82.6346 46.9631 81.6844 47.7848 80.4878 48.3564C79.2912 48.928 77.8834 49.2139 76.3349 49.2139C75.5606 49.2139 74.716 49.1424 73.9417 48.9638Z" fill="black"/>
<path d="M86.6817 30.0647H90.3419L91.0457 32.6013H91.0809C91.4329 31.7081 91.996 30.9936 92.8054 30.4934C93.6149 29.9932 94.4948 29.7432 95.445 29.7432C96.4304 29.7432 97.2751 29.9932 97.9086 30.4934C98.5421 30.9936 99.0348 31.7081 99.2811 32.6727H99.3163C99.7387 31.7081 100.372 30.9936 101.182 30.4934C101.991 29.9932 102.871 29.7432 103.856 29.7432C104.666 29.7432 105.37 29.9218 105.968 30.2791C106.566 30.6363 107.024 31.1722 107.305 31.8868C107.622 32.6013 107.763 33.423 107.763 34.3519V43.3192H103.188L103.152 35.4951C103.152 34.8878 103.012 34.4233 102.695 34.1375C102.413 33.816 101.991 33.6731 101.498 33.6731C101.076 33.6731 100.759 33.7803 100.443 33.9589C100.161 34.1375 99.9146 34.4233 99.7739 34.7806C99.6331 35.1379 99.5627 35.5666 99.5627 36.031L99.5275 43.3192H94.9171V35.4951C94.9171 34.8878 94.7763 34.4233 94.4948 34.1375C94.2132 33.816 93.7909 33.6731 93.263 33.6731C92.6295 33.6731 92.1368 33.8874 91.82 34.3162C91.4681 34.7449 91.2921 35.3165 91.2921 36.031V43.3192H86.6465V30.0647H86.6817Z" fill="black"/>
<path d="M111.703 43.1772C111.035 42.8557 110.472 42.427 110.12 41.8553C109.733 41.2837 109.557 40.6406 109.557 39.8904C109.557 38.7114 110.049 37.7468 111.035 36.9608C112.02 36.2106 113.428 35.7104 115.258 35.5318L117.475 35.3174C117.757 35.2817 117.968 35.1745 118.179 34.9959C118.39 34.8172 118.461 34.6029 118.461 34.3171C118.461 34.0312 118.39 33.7812 118.25 33.5668C118.109 33.3524 117.898 33.1738 117.616 33.0666C117.335 32.9237 117.053 32.888 116.701 32.888C116.279 32.888 115.927 32.9952 115.61 33.1738C115.293 33.3524 115.047 33.6025 114.871 33.9598C114.695 34.2813 114.554 34.6743 114.519 35.0673L110.049 34.46C110.12 33.5311 110.436 32.6736 110.964 31.9234C111.528 31.1731 112.267 30.6015 113.217 30.1728C114.167 29.7798 115.293 29.5654 116.56 29.5654C117.862 29.5654 118.989 29.7798 119.974 30.2442C120.96 30.7087 121.699 31.3518 122.191 32.1735C122.719 32.9952 122.966 33.9598 122.966 35.0673V39.676C122.966 39.9618 123.036 40.1762 123.142 40.3548C123.247 40.4977 123.423 40.5692 123.634 40.5692C123.775 40.5692 123.916 40.5335 124.092 40.462C124.268 40.3906 124.444 40.2834 124.584 40.1047L125.429 42.5341C125.007 42.8914 124.479 43.1772 123.845 43.3916C123.212 43.6059 122.543 43.7131 121.91 43.7131C121.347 43.7131 120.819 43.6059 120.326 43.4273C119.868 43.213 119.446 42.9629 119.129 42.6413C118.813 42.3198 118.602 41.9268 118.531 41.4981L118.496 41.1765H118.461C118.179 41.6767 117.827 42.1412 117.37 42.4984C116.947 42.8914 116.419 43.1772 115.856 43.3916C115.258 43.6059 114.66 43.7131 113.991 43.7131C113.146 43.6417 112.407 43.4988 111.703 43.1772ZM117.159 40.2119C117.546 39.9976 117.827 39.7118 118.003 39.3545C118.214 38.9615 118.32 38.5685 118.32 38.1041V37.6753L116.455 37.854C115.645 37.9254 115.082 38.1041 114.73 38.3541C114.378 38.6042 114.202 38.9258 114.202 39.3188C114.202 39.676 114.343 39.9618 114.66 40.1762C114.977 40.3906 115.399 40.4977 115.927 40.4977C116.384 40.5335 116.807 40.4263 117.159 40.2119Z" fill="black"/>
<path d="M138.135 30.2429C138.733 30.5645 139.191 31.0646 139.543 31.7077C139.86 32.3508 140.036 33.1011 140.036 33.9942V43.3188H135.39V35.4947C135.39 34.8874 135.249 34.4229 134.932 34.0657C134.651 33.7441 134.229 33.5655 133.701 33.5655C133.278 33.5655 132.926 33.6727 132.61 33.8513C132.293 34.0299 132.047 34.3158 131.835 34.673C131.659 35.0303 131.554 35.459 131.554 35.9592V43.2831H126.908V30.0643H130.744L131.483 32.5294H131.519C131.976 31.6363 132.574 30.9575 133.314 30.4573C134.053 29.9571 134.932 29.707 135.883 29.707C136.798 29.7428 137.502 29.9214 138.135 30.2429Z" fill="black"/>
</g>
<defs>
<clipPath id="clip0_8540_95488">
<rect width="105.512" height="25.8303" fill="white" transform="translate(34.4883 23.3838)"/>
</clipPath>
</defs>
</svg>
