<svg width="500" height="478" viewBox="0 0 500 478" fill="none" xmlns="http://www.w3.org/2000/svg">
<g filter="url(#filter0_d_9711_106923)">
<path fill-rule="evenodd" clip-rule="evenodd" d="M318.31 203.517C306.791 202.237 297.698 193.144 296.418 181.625L282.008 51.9315C281.909 51.0409 280.614 51.0409 280.515 51.9316L266.105 181.625C264.825 193.144 255.732 202.237 244.213 203.517L114.519 217.927C113.629 218.026 113.629 219.321 114.519 219.42L244.213 233.83C255.732 235.11 264.825 244.203 266.105 255.722L280.515 385.416C280.614 386.307 281.909 386.307 282.008 385.416L296.418 255.722C297.698 244.203 306.791 235.11 318.31 233.83L448.004 219.42C448.894 219.321 448.894 218.026 448.004 217.927L318.31 203.517ZM449.248 230.615L319.554 245.025C313.271 245.723 308.311 250.683 307.613 256.966L300.408 321.813L293.203 386.66C291.619 400.909 270.904 400.911 269.321 386.66L254.91 256.966C254.212 250.683 249.252 245.723 242.969 245.025L113.276 230.615C99.026 229.031 99.0246 208.316 113.276 206.733L242.969 192.322C249.252 191.624 254.212 186.664 254.91 180.381L269.321 50.6877C270.904 36.4381 291.619 36.4368 293.203 50.6877L307.613 180.381C308.311 186.664 313.271 191.624 319.554 192.322L449.248 206.733C463.497 208.316 463.499 229.031 449.248 230.615Z" fill="#FFDBFE"/>
</g>
<g filter="url(#filter1_d_9711_106923)">
<path fill-rule="evenodd" clip-rule="evenodd" d="M107.258 344.276C114.239 343.5 119.75 337.989 120.526 331.008L126.711 275.347C126.76 274.902 127.408 274.902 127.457 275.347L133.642 331.008C134.417 337.989 139.928 343.5 146.909 344.276L202.57 350.46C203.016 350.51 203.016 351.157 202.57 351.207L146.909 357.391C139.928 358.167 134.417 363.678 133.642 370.659L127.457 426.32C127.408 426.766 126.76 426.766 126.711 426.32L120.526 370.659C119.75 363.678 114.239 358.167 107.258 357.391L51.5973 351.207C51.1519 351.157 51.1519 350.51 51.5973 350.46L107.258 344.276ZM50.3534 362.401L106.014 368.586C107.76 368.78 109.138 370.158 109.331 371.903L115.516 427.564C117.05 441.369 137.118 441.369 138.652 427.564L144.836 371.903C145.03 370.158 146.408 368.78 148.153 368.586L203.814 362.401C217.619 360.868 217.619 340.8 203.814 339.266L148.153 333.081C146.408 332.887 145.03 331.51 144.836 329.764L138.652 274.103C137.118 260.298 117.05 260.298 115.516 274.103L109.331 329.764C109.138 331.51 107.76 332.887 106.014 333.081L50.3534 339.266C36.5485 340.8 36.5485 360.868 50.3534 362.401Z" fill="#FFDBFE"/>
</g>
<defs>
<filter id="filter0_d_9711_106923" x="62.9965" y="0.408627" width="436.53" height="436.53" filterUnits="userSpaceOnUse" color-interpolation-filters="sRGB">
<feFlood flood-opacity="0" result="BackgroundImageFix"/>
<feColorMatrix in="SourceAlpha" type="matrix" values="0 0 0 0 0 0 0 0 0 0 0 0 0 0 0 0 0 0 127 0" result="hardAlpha"/>
<feOffset/>
<feGaussianBlur stdDeviation="19.7957"/>
<feComposite in2="hardAlpha" operator="out"/>
<feColorMatrix type="matrix" values="0 0 0 0 1 0 0 0 0 0.858333 0 0 0 0 0.994333 0 0 0 1 0"/>
<feBlend mode="normal" in2="BackgroundImageFix" result="effect1_dropShadow_9711_106923"/>
<feBlend mode="normal" in="SourceGraphic" in2="effect1_dropShadow_9711_106923" result="shape"/>
</filter>
<filter id="filter1_d_9711_106923" x="0.408627" y="224.158" width="253.351" height="253.351" filterUnits="userSpaceOnUse" color-interpolation-filters="sRGB">
<feFlood flood-opacity="0" result="BackgroundImageFix"/>
<feColorMatrix in="SourceAlpha" type="matrix" values="0 0 0 0 0 0 0 0 0 0 0 0 0 0 0 0 0 0 127 0" result="hardAlpha"/>
<feOffset/>
<feGaussianBlur stdDeviation="19.7957"/>
<feComposite in2="hardAlpha" operator="out"/>
<feColorMatrix type="matrix" values="0 0 0 0 1 0 0 0 0 0.858333 0 0 0 0 0.994333 0 0 0 1 0"/>
<feBlend mode="normal" in2="BackgroundImageFix" result="effect1_dropShadow_9711_106923"/>
<feBlend mode="normal" in="SourceGraphic" in2="effect1_dropShadow_9711_106923" result="shape"/>
</filter>
</defs>
</svg>
