<svg width="14" height="32" viewBox="0 0 14 32" fill="none" xmlns="http://www.w3.org/2000/svg">
<g clip-path="url(#clip0_8019_92667)">
<path fill-rule="evenodd" clip-rule="evenodd" d="M5 0H0L5 16L0 32H5L10 16L5 0ZM19 0H14L19 16L14 32H19L24 16L19 0ZM28 0H33L38 16L33 32H28L33 16L28 0ZM47 0H42L47 16L42 32H47L52 16L47 0ZM56 0H61L66 16L61 32H56L61 16L56 0ZM75 0H70L75 16L70 32H75L80 16L75 0ZM84 0H89L94 16L89 32H84L89 16L84 0ZM103 0H98L103 16L98 32H103L108 16L103 0ZM112 0H117L122 16L117 32H112L117 16L112 0Z" fill="#E9E9E9"/>
</g>
<defs>
<clipPath id="clip0_8019_92667">
<rect width="14" height="32" fill="white"/>
</clipPath>
</defs>
</svg>
