<svg width="64" height="64" viewBox="0 0 64 64" fill="none" xmlns="http://www.w3.org/2000/svg">
<path fill-rule="evenodd" clip-rule="evenodd" d="M30.4711 3.44377C33.2368 2.21461 36.4597 3.63617 37.4167 6.50732L40.024 14.3291C41.7161 15.7986 42.6923 17.9324 42.6923 20.1809V39.5608C42.6923 41.3026 41.2803 42.7146 39.5385 42.7146C39.4869 42.7146 39.4356 42.7134 39.3846 42.711V51.0583C39.3846 52.3259 40.2935 53.411 41.5415 53.6332L42.6929 53.8383C44.0278 54.076 45 55.2367 45 56.5925C45 56.9234 44.9415 57.2451 44.8323 57.5448C44.8415 57.6011 44.8462 57.6577 44.8462 57.7146C44.8462 59.7963 38.6126 61.4838 30.9231 61.4838C23.2336 61.4838 17 59.7963 17 57.7146C17 55.9549 21.4541 54.4769 27.4767 54.0617L27.6101 36.114C26.0403 34.5844 25.0918 32.4239 25.1712 30.0528L25.5901 17.5319C25.6139 16.8197 25.884 16.1378 26.3544 15.6026L27.7156 14.0537C27.7833 13.9766 27.8174 13.8756 27.8102 13.7733L27.4393 8.48736C27.2883 6.33576 28.5002 4.31977 30.4711 3.44377ZM32.3846 42.0269V55.7678C32.1543 55.81 31.8968 55.8295 31.6164 55.8265C31.0734 55.8206 30.5083 55.7313 30.01 55.6183C29.6306 55.5323 29.3147 55.1565 29.3187 54.6225L29.4184 41.2179C30.0562 41.5174 31.5069 41.9816 32.3846 42.0269ZM36.3846 42.4838C36.3846 43.2445 36.8647 43.8931 37.5385 44.1431V51.0583C37.5385 53.2206 39.089 55.0717 41.2178 55.4508L42.3693 55.6558C42.8232 55.7367 43.1538 56.1314 43.1538 56.5925C43.1538 57.0457 42.8458 57.3991 42.4467 57.4656C40.5183 57.7867 37.1738 58.2013 34.5911 57.8103C34.4204 57.7844 34.2308 57.614 34.2308 57.3129V37.5411C34.2308 36.9997 33.7919 36.5608 33.2505 36.5608C29.7238 36.5608 26.8984 33.6393 27.0163 30.1145L27.4352 17.5936C27.4447 17.3085 27.5529 17.0355 27.7412 16.8213L29.1023 15.2723C29.4957 14.8248 29.6935 14.2384 29.6518 13.6441L29.2809 8.35812C29.1843 6.98135 29.9597 5.69135 31.2209 5.13081C32.9906 4.34429 35.0529 5.25392 35.6653 7.09112L38.341 15.1183C38.4054 15.3113 38.5231 15.4821 38.6805 15.6109C40.0512 16.7324 40.8461 18.4099 40.8461 20.1809V39.5608C40.8461 40.283 40.2607 40.8685 39.5385 40.8685C38.8162 40.8685 38.2308 40.283 38.2308 39.5608V21.6377H36.3846V39.5608L36.3846 39.5737V42.4838Z" fill="black"/>
<path fill-rule="evenodd" clip-rule="evenodd" d="M32.3719 42.0277V55.7686C32.1416 55.8108 31.884 55.8303 31.6037 55.8273C31.0606 55.8214 30.4956 55.7321 29.9973 55.6191C29.6179 55.5331 29.302 55.1573 29.306 54.6233L29.4056 41.2187C30.0435 41.5182 31.4942 41.9824 32.3719 42.0277ZM36.3719 42.4846C36.3719 43.2453 36.852 43.8939 37.5257 44.1439V51.0592C37.5257 53.2214 39.0763 55.0725 41.2051 55.4516L42.3565 55.6566C42.8105 55.7375 43.1411 56.1322 43.1411 56.5933C43.1411 57.0466 42.8331 57.3999 42.434 57.4664C40.5056 57.7875 37.161 58.2021 34.5784 57.8111C34.4076 57.7852 34.218 57.6148 34.218 57.3137V37.5419C34.218 37.0005 33.7791 36.5616 33.2378 36.5616C29.711 36.5616 26.8856 33.6401 27.0036 30.1153L27.4225 17.5944C27.432 17.3093 27.5402 17.0363 27.7285 16.8221L29.0896 15.2732C29.4829 14.8256 29.6808 14.2392 29.6391 13.6449L29.2682 8.35893C29.1715 6.98216 29.947 5.69216 31.2082 5.13162C32.9779 4.3451 35.0402 5.25473 35.6526 7.09193L38.3283 15.1191C38.3926 15.3121 38.5104 15.4829 38.6678 15.6117C40.0385 16.7332 40.8334 18.4107 40.8334 20.1817V39.5616C40.8334 40.2838 40.2479 40.8693 39.5257 40.8693C38.8035 40.8693 38.218 40.2838 38.218 39.5616V21.6385H36.3719V39.5616L36.3719 39.5745V42.4846Z" fill="#F2FE67"/>
</svg>
