<svg width="162" height="46" viewBox="0 0 162 46" fill="none" xmlns="http://www.w3.org/2000/svg">
<path d="M10.9688 32.0629L12.0422 30.4863L12.8395 31.6344L18.1606 34.9407L27.6526 35.5835L35.5652 33.364L37.7273 30.4863L39.2301 32.5681V39.4562L34.8444 42.7625L24.9231 44.7677L14.787 42.3339L10.9688 38.7368V32.0629Z" fill="white"/>
<path d="M12.5965 30.7731L11.2324 21.2302L11.8761 18.0136L14.9415 15.624L17.9609 14.996L17.5624 9.78805L17.2252 3.21683L19.6161 0.980469H23.6011L25.6089 4.73326L27.0649 14.996H29.0574L30.2836 5.0243L31.5404 2.54286L34.4218 1.60849L37.6864 2.83389L38.514 7.06153L37.1959 22.6854L38.0695 28.0006L37.6864 31.156L32.276 34.8475L23.6011 35.8738L16.1983 34.3727L12.5965 30.7731Z" fill="#F2FE67"/>
<path fill-rule="evenodd" clip-rule="evenodd" d="M39.4161 6.08016L38.2107 23.2371C38.6464 24.305 38.883 25.4665 38.883 26.6693V28.0241C38.883 28.5613 38.8427 29.1166 38.7466 29.6667C39.7817 30.9688 40.4008 32.6182 40.4008 34.4103V36.3879C40.4008 38.1154 39.9289 40.0291 38.3878 41.2611C37.918 41.6367 37.352 42.0331 36.6783 42.4228C34.4429 44.2672 27.323 45.6156 18.8854 45.6156C8.65591 45.6156 0.363281 43.6337 0.363281 41.1888C0.363281 39.4958 4.33993 38.0247 10.1826 37.2801C10.1601 37.064 10.1458 36.8484 10.1388 36.6346L10.0328 33.3933C9.98333 31.8811 10.4627 30.4756 11.3012 29.354C11.2169 28.9927 11.151 28.6305 11.1006 28.2727L10.2736 22.4074C9.75765 18.7484 12.1889 15.317 15.7981 14.5534C16.2565 14.4564 16.7167 14.4068 17.1728 14.402L16.2181 5.83171C15.9139 3.10059 17.7685 0.597135 20.471 0.0909714C23.4576 -0.468397 26.2947 1.61396 26.6543 4.62945L27.8134 14.3475C27.8268 14.4594 27.9217 14.5436 28.0344 14.5436C28.1454 14.5436 28.2394 14.4619 28.2547 14.352L29.5578 5.04904C29.9425 2.30245 32.5073 0.405849 35.2479 0.841445C37.7854 1.24478 39.5945 3.5184 39.4161 6.08016ZM20.7873 1.77775C22.7976 1.40124 24.7072 2.80287 24.9493 4.83258L26.1084 14.5506C26.2247 15.5256 27.052 16.2597 28.0344 16.2597C29.0017 16.2597 29.8212 15.5474 29.9553 14.5899L31.2584 5.28696C31.5099 3.4914 33.1866 2.25152 34.9782 2.53629C36.6371 2.79996 37.8197 4.28632 37.7031 5.96105L36.675 20.7299C35.6359 19.5248 34.2759 18.5858 32.6951 18.052L28.4218 16.609C26.5543 15.9784 24.5689 16.6001 23.3732 18.0175C22.415 16.2695 20.7776 15.0628 18.9232 14.6054L17.9247 5.64182C17.7199 3.80351 18.9683 2.11845 20.7873 1.77775ZM36.499 33.5132C37.1819 33.0284 37.6861 32.4194 38.0502 31.7446C38.4555 32.5455 38.6837 33.4508 38.6837 34.4103V36.3879C38.6837 37.8633 38.2769 39.1521 37.3152 39.9209C35.5612 41.3232 32.0134 43.2509 25.6193 43.3822C19.319 43.5116 15.5424 41.7426 13.5717 40.3757C12.4417 39.5919 11.9076 38.1861 11.855 36.5786L11.749 33.3373C11.7276 32.6826 11.841 32.0562 12.0641 31.4838C12.5766 32.4818 13.3098 33.3711 14.3463 34.0049C16.5076 35.3263 20.0847 36.6971 25.5162 36.5855C31.0711 36.4713 34.5106 34.9248 36.499 33.5132ZM35.5046 32.1141C33.8142 33.3141 30.7133 34.7621 25.4809 34.8697C23.8844 34.9025 22.4691 34.7995 21.2204 34.6072C18.4734 34.1843 16.5326 33.3298 15.2424 32.5409C13.802 31.6602 13.0749 29.9763 12.8009 28.0332L11.9739 22.1679C11.5851 19.4103 13.4197 16.8108 16.1537 16.2323C18.4623 15.7438 20.8273 16.8496 21.9168 18.9346L22.6542 20.3458C23.3225 21.6248 23.0458 23.1931 21.9801 24.1665C20.559 25.4646 18.319 25.2145 17.2197 23.6348L15.3026 20.8802L13.893 21.8602L15.81 24.6147C16.9771 26.2916 18.979 26.9953 20.8269 26.6154C21.8589 26.4032 23.3061 27.0788 23.3061 28.1324V29.859H25.0233V27.5844C25.0233 26.4912 26.1578 25.7458 27.1775 26.14C27.3763 26.2168 27.5752 26.2931 27.7741 26.3694C28.2193 26.5402 28.6641 26.7108 29.1054 26.8866L29.7414 25.2925L25.8452 23.7399C25.349 23.5422 24.9361 23.2242 24.6269 22.8315C24.841 21.819 24.7344 20.741 24.2787 19.7591C24.9051 18.4319 26.4434 17.7524 27.8722 18.2349L32.1454 19.6778C35.146 20.691 37.1659 23.5039 37.1659 26.6693V28.0241C37.1659 29.7588 36.6831 31.2775 35.5046 32.1141Z" fill="black"/>
<path d="M59.7883 33.6771C58.9218 33.6771 58.1506 33.5298 57.4748 33.2351C56.8162 32.9232 56.2963 32.4813 55.915 31.9094C55.5511 31.3375 55.3691 30.6703 55.3691 29.9077C55.3691 28.6773 55.8631 27.6808 56.8509 26.9183C57.856 26.1558 59.2598 25.6878 61.0621 25.5145L63.1677 25.3066C63.4624 25.2719 63.705 25.1679 63.8956 24.9946C64.0862 24.804 64.1816 24.5614 64.1816 24.2668C64.1816 23.9895 64.1122 23.7469 63.9736 23.5389C63.835 23.3309 63.6443 23.1663 63.4017 23.045C63.1591 22.9237 62.8905 22.863 62.5958 22.863C62.2146 22.863 61.8766 22.9583 61.582 23.149C61.3047 23.3223 61.0794 23.5736 60.9061 23.9028C60.7328 24.2148 60.6202 24.5787 60.5682 24.9946L55.8631 24.4487C55.915 23.4609 56.2183 22.5944 56.7729 21.8492C57.3275 21.0867 58.09 20.4974 59.0605 20.0815C60.0483 19.6656 61.1834 19.4576 62.4659 19.4576C63.8003 19.4576 64.9528 19.6916 65.9232 20.1595C66.9111 20.6101 67.6649 21.2513 68.1848 22.0832C68.7047 22.915 68.9647 23.9028 68.9647 25.0466V29.5698C68.9647 29.8471 69.0167 30.0637 69.1207 30.2197C69.242 30.3757 69.4066 30.4536 69.6146 30.4536C69.7706 30.4536 69.9352 30.419 70.1085 30.3497C70.2818 30.263 70.4378 30.1504 70.5764 30.0117L71.4603 32.5333C71.0097 32.9145 70.4551 33.2005 69.7966 33.3911C69.138 33.5818 68.4621 33.6771 67.7689 33.6771C67.197 33.6771 66.6598 33.5731 66.1572 33.3651C65.672 33.1745 65.2647 32.9145 64.9354 32.5853C64.6235 32.2387 64.4242 31.8574 64.3375 31.4415L64.2595 31.1555H64.2336C63.9563 31.6581 63.601 32.1 63.1677 32.4813C62.7345 32.8626 62.2232 33.1572 61.634 33.3651C61.0621 33.5731 60.4469 33.6771 59.7883 33.6771ZM61.894 30.4277C62.3099 30.4277 62.6825 30.3323 63.0118 30.1417C63.3584 29.9337 63.627 29.6565 63.8176 29.3099C64.0083 28.9633 64.1036 28.5647 64.1036 28.1141V27.6721L62.4139 27.8281C61.686 27.8974 61.1488 28.0621 60.8022 28.322C60.4556 28.5647 60.2823 28.8766 60.2823 29.2579C60.2823 29.6045 60.4296 29.8904 60.7242 30.1157C61.0361 30.3237 61.4261 30.4277 61.894 30.4277Z" fill="black"/>
<path d="M72.3658 19.9515H76.2391L76.993 22.5511H77.019C77.3656 21.6499 77.9288 20.9394 78.7087 20.4195C79.5059 19.8995 80.3984 19.6396 81.3862 19.6396C82.3914 19.6396 83.2232 19.8909 83.8818 20.3935C84.5576 20.896 85.0256 21.6239 85.2855 22.5771H85.3115C85.7621 21.6239 86.386 20.896 87.1832 20.3935C87.9804 19.8909 88.8815 19.6396 89.8867 19.6396C90.7012 19.6396 91.4031 19.8216 91.9923 20.1855C92.5815 20.5494 93.0321 21.078 93.3441 21.7712C93.656 22.4644 93.812 23.2876 93.812 24.2408V33.3651H88.8989L88.9249 25.4365C88.9249 24.8993 88.7862 24.4834 88.5089 24.1888C88.2316 23.8768 87.8504 23.7209 87.3651 23.7209C86.9839 23.7209 86.6546 23.8162 86.3773 24.0068C86.1 24.1801 85.8921 24.4401 85.7534 24.7867C85.6148 25.1159 85.5455 25.5059 85.5455 25.9565V33.3651H80.6323V25.4365C80.6323 24.8993 80.4937 24.4834 80.2164 24.1888C79.9565 23.8768 79.5839 23.7209 79.0986 23.7209C78.5267 23.7209 78.0761 23.9288 77.7469 24.3447C77.4176 24.7433 77.2529 25.2806 77.2529 25.9565V33.3651H72.3658V19.9515Z" fill="black"/>
<path d="M95.5433 19.9515H99.4166L100.17 22.5511H100.196C100.543 21.6499 101.106 20.9394 101.886 20.4195C102.683 19.8995 103.576 19.6396 104.564 19.6396C105.569 19.6396 106.401 19.8909 107.059 20.3935C107.735 20.896 108.203 21.6239 108.463 22.5771H108.489C108.94 21.6239 109.563 20.896 110.361 20.3935C111.158 19.8909 112.059 19.6396 113.064 19.6396C113.879 19.6396 114.581 19.8216 115.17 20.1855C115.759 20.5494 116.21 21.078 116.522 21.7712C116.833 22.4644 116.989 23.2876 116.989 24.2408V33.3651H112.076L112.102 25.4365C112.102 24.8993 111.964 24.4834 111.686 24.1888C111.409 23.8768 111.028 23.7209 110.543 23.7209C110.161 23.7209 109.832 23.8162 109.555 24.0068C109.278 24.1801 109.07 24.4401 108.931 24.7867C108.792 25.1159 108.723 25.5059 108.723 25.9565V33.3651H103.81V25.4365C103.81 24.8993 103.671 24.4834 103.394 24.1888C103.134 23.8768 102.761 23.7209 102.276 23.7209C101.704 23.7209 101.254 23.9288 100.924 24.3447C100.595 24.7433 100.43 25.2806 100.43 25.9565V33.3651H95.5433V19.9515Z" fill="black"/>
<path d="M123.44 31.0515C123.44 29.8038 123.605 28.7466 123.934 27.8801C124.263 27.0136 124.775 26.2771 125.468 25.6705C126.161 25.0466 127.088 24.518 128.249 24.0848L130.355 23.2269C130.944 23.0017 131.412 22.759 131.759 22.4991C132.123 22.2391 132.383 21.9445 132.539 21.6152C132.712 21.286 132.798 20.896 132.798 20.4454C132.798 20.0469 132.729 19.7089 132.591 19.4316C132.452 19.1543 132.261 18.9464 132.019 18.8077C131.793 18.6518 131.516 18.5738 131.187 18.5738C130.598 18.5738 130.121 18.8511 129.757 19.4056C129.393 19.9602 129.202 20.7747 129.185 21.8492L123.882 20.9394C123.986 19.6049 124.367 18.4438 125.026 17.456C125.684 16.4508 126.56 15.6796 127.651 15.1424C128.761 14.5878 130.017 14.3105 131.421 14.3105C132.807 14.3105 134.02 14.5618 135.06 15.0644C136.1 15.567 136.897 16.2862 137.452 17.222C138.024 18.1579 138.309 19.2497 138.309 20.4974C138.309 21.4159 138.145 22.2131 137.816 22.889C137.504 23.5649 137.01 24.1628 136.334 24.6827C135.658 25.2026 134.765 25.6705 133.656 26.0864L131.109 27.1003C130.589 27.3429 130.173 27.5855 129.861 27.8281C129.549 28.0534 129.324 28.3134 129.185 28.608C129.046 28.8853 128.977 29.2145 128.977 29.5958H138.05V33.3651H123.44V31.0515Z" fill="black"/>
<path d="M142.257 33.6511C141.443 33.6511 140.775 33.3998 140.255 32.8972C139.736 32.3946 139.476 31.7534 139.476 30.9736C139.476 30.1937 139.736 29.5525 140.255 29.0499C140.775 28.5473 141.443 28.296 142.257 28.296C143.072 28.296 143.739 28.5473 144.259 29.0499C144.779 29.5351 145.039 30.1764 145.039 30.9736C145.039 31.7534 144.779 32.3946 144.259 32.8972C143.739 33.3998 143.072 33.6511 142.257 33.6511Z" fill="black"/>
<path d="M153.217 33.833C151.536 33.833 150.055 33.4344 148.772 32.6373C147.507 31.8401 146.528 30.7049 145.835 29.2319C145.142 27.7588 144.795 26.0344 144.795 24.0588C144.795 22.0832 145.142 20.3588 145.835 18.8857C146.528 17.4127 147.507 16.2862 148.772 15.5063C150.055 14.7091 151.536 14.3105 153.217 14.3105C154.898 14.3105 156.372 14.7091 157.637 15.5063C158.919 16.2862 159.907 17.4127 160.6 18.8857C161.293 20.3588 161.64 22.0832 161.64 24.0588C161.64 26.0344 161.293 27.7588 160.6 29.2319C159.907 30.7049 158.919 31.8401 157.637 32.6373C156.372 33.4344 154.898 33.833 153.217 33.833ZM153.217 29.3099C153.859 29.3099 154.413 29.1019 154.881 28.686C155.349 28.27 155.713 27.6635 155.973 26.8663C156.233 26.0691 156.363 25.1333 156.363 24.0588C156.363 22.9843 156.233 22.0485 155.973 21.2513C155.713 20.4541 155.349 19.8476 154.881 19.4316C154.413 19.0157 153.859 18.8077 153.217 18.8077C152.576 18.8077 152.022 19.0157 151.554 19.4316C151.086 19.8476 150.722 20.4541 150.462 21.2513C150.202 22.0485 150.072 22.9843 150.072 24.0588C150.072 25.1333 150.202 26.0691 150.462 26.8663C150.722 27.6635 151.086 28.27 151.554 28.686C152.022 29.1019 152.576 29.3099 153.217 29.3099Z" fill="black"/>
</svg>
