<svg width="64" height="64" viewBox="0 0 64 64" fill="none" xmlns="http://www.w3.org/2000/svg">
<path d="M52 62.5C53.3807 62.5 54.5 61.3807 54.5 60C54.5 58.6193 53.3807 57.5 52 57.5V62.5ZM52 49.5H54.5V44.5H52V49.5ZM52 57.5H15.5V62.5H52V57.5ZM15.5 49.5H52V44.5H15.5V49.5ZM15.5 57.5C13.2909 57.5 11.5 55.7091 11.5 53.5H6.5C6.5 58.4706 10.5294 62.5 15.5 62.5V57.5ZM11.5 53.5C11.5 51.2909 13.2909 49.5 15.5 49.5V44.5C10.5294 44.5 6.5 48.5294 6.5 53.5H11.5Z" fill="black"/>
<path fill-rule="evenodd" clip-rule="evenodd" d="M6.5 14C6.5 8.20101 11.201 3.5 17 3.5H51C52.933 3.5 54.5 5.067 54.5 7V47H49.5V8.5H17C13.9624 8.5 11.5 10.9624 11.5 14V53H6.5V14Z" fill="black"/>
<path fill-rule="evenodd" clip-rule="evenodd" d="M15.5 49.5C13.2909 49.5 11.5 51.2909 11.5 53.5C11.5 55.7091 13.2909 57.5 15.5 57.5H47.5V49.5H15.5ZM6.5 53.5C6.5 48.5294 10.5294 44.5 15.5 44.5H52.5V59C52.5 60.933 50.933 62.5 49 62.5H15.5C10.5294 62.5 6.5 58.4706 6.5 53.5Z" fill="black"/>
<path fill-rule="evenodd" clip-rule="evenodd" d="M16 47L16 5L21 5L21 47L16 47Z" fill="black"/>
</svg>
