<svg width="72" height="73" viewBox="0 0 72 73" fill="none" xmlns="http://www.w3.org/2000/svg">
<g clip-path="url(#clip0)">
<path fill-rule="evenodd" clip-rule="evenodd" d="M33.589 67.4002C33.4629 65.9842 33.2432 64.5954 32.936 63.2399C30.2718 51.4857 21.0293 42.2433 9.27507 39.579C7.91963 39.2718 6.53078 39.0521 5.11477 38.926C4.18293 38.8431 3.23931 38.8007 2.28571 38.8007C1.02857 38.8007 0 37.7722 0 36.515C0 35.2579 1.02857 34.2293 2.28571 34.2293C3.23931 34.2293 4.18293 34.1869 5.11477 34.104C6.53078 33.978 7.91963 33.7582 9.27507 33.451C21.0293 30.7868 30.2718 21.5443 32.936 9.79009C33.2432 8.43464 33.4629 7.0458 33.589 5.62979C33.6719 4.69794 33.7143 3.75433 33.7143 2.80073C33.7143 1.54359 34.7429 0.515015 36 0.515015C37.2571 0.515015 38.2857 1.54359 38.2857 2.80073C38.2857 3.75433 38.3281 4.69794 38.411 5.62979C38.5371 7.0458 38.7568 8.43464 39.064 9.79009C41.7282 21.5443 50.9707 30.7868 62.7249 33.451C64.0804 33.7582 65.4692 33.978 66.8852 34.104C67.8171 34.1869 68.7607 34.2293 69.7143 34.2293C70.9714 34.2293 72 35.2579 72 36.515C72 37.7722 70.9714 38.8007 69.7143 38.8007C68.7607 38.8007 67.8171 38.8431 66.8852 38.926C65.4692 39.0521 64.0804 39.2718 62.7249 39.579C50.9707 42.2433 41.7282 51.4857 39.064 63.2399C38.7568 64.5954 38.5371 65.9842 38.411 67.4002C38.3281 68.3321 38.2857 69.2757 38.2857 70.2293C38.2857 71.4865 37.2571 72.515 36 72.515C34.7429 72.515 33.7143 71.4865 33.7143 70.2293C33.7143 69.2757 33.6719 68.3321 33.589 67.4002ZM53.4279 36.515C45.8336 40.187 39.6719 46.3486 36 53.943C32.3281 46.3486 26.1664 40.187 18.5721 36.515C26.1664 32.8431 32.3281 26.6814 36 19.0871C39.6719 26.6814 45.8336 32.8431 53.4279 36.515Z" fill="black"/>
</g>
<defs>
<clipPath id="clip0">
<rect width="72" height="72" fill="white" transform="translate(0 0.515015)"/>
</clipPath>
</defs>
</svg>
