<svg width="180" height="180" viewBox="0 0 180 180" fill="none" xmlns="http://www.w3.org/2000/svg">
<rect width="180" height="180" rx="45" fill="#F2FE67"/>
<mask id="mask0" mask-type="alpha" maskUnits="userSpaceOnUse" x="0" y="0" width="180" height="180">
<rect width="180" height="180" rx="45" fill="#F2FE67"/>
</mask>
<g mask="url(#mask0)">
<path fill-rule="evenodd" clip-rule="evenodd" d="M85.2524 -97.2663C97.0062 -102.49 110.704 -96.4486 114.771 -84.2462L125.852 -51.0036C133.043 -44.7581 137.192 -35.6898 137.192 -26.1334V56.231C137.192 63.6338 131.191 69.6349 123.788 69.6349C123.569 69.6349 123.351 69.6296 123.135 69.6192V105.096C123.135 110.483 126.998 115.094 132.301 116.039L137.195 116.91C142.868 117.921 147 122.853 147 128.616C147 130.022 146.751 131.39 146.287 132.663C146.326 132.902 146.346 133.143 146.346 133.385C146.346 142.232 119.854 149.404 87.1731 149.404C54.4927 149.404 28 142.232 28 133.385C28 125.906 46.93 119.624 72.5258 117.86L73.0929 41.5823C66.4211 35.0814 62.3903 25.8993 62.7274 15.822L64.5078 -37.3919C64.6091 -40.4187 65.7572 -43.3165 67.7563 -45.5914L73.5412 -52.1742C73.8291 -52.5018 73.9739 -52.9309 73.9433 -53.3659L72.3668 -75.8311C71.7251 -84.9754 76.8756 -93.5433 85.2524 -97.2663ZM93.3846 66.7119V125.111C92.4059 125.29 91.3113 125.373 90.1198 125.36C87.8118 125.335 85.4104 124.956 83.2924 124.475C81.68 124.11 80.3376 122.513 80.3545 120.243L80.778 63.2738C83.4889 64.5467 89.6544 66.5193 93.3846 66.7119ZM110.385 68.6539C110.385 71.8869 112.425 74.6434 115.288 75.7058V105.096C115.288 114.285 121.878 122.152 130.926 123.764L135.819 124.635C137.749 124.979 139.154 126.656 139.154 128.616C139.154 130.542 137.845 132.044 136.148 132.326C127.953 133.691 113.738 135.453 102.762 133.791C102.037 133.682 101.231 132.957 101.231 131.677V47.6472C101.231 45.3462 99.3655 43.481 97.0646 43.481C82.0759 43.481 70.068 31.0646 70.5692 16.0844L72.3496 -37.1296C72.3901 -38.3412 72.8498 -39.5013 73.6501 -40.412L79.435 -46.9949C81.1066 -48.897 81.9475 -51.389 81.7702 -53.9151L80.1937 -76.3803C79.7831 -82.2316 83.0789 -87.7141 88.439 -90.0964C95.9601 -93.4391 104.725 -89.5732 107.328 -81.7651L118.699 -47.6494C118.973 -46.8292 119.473 -46.1034 120.142 -45.5559C125.968 -40.7896 129.346 -33.6602 129.346 -26.1334V56.231C129.346 59.3005 126.858 61.7887 123.788 61.7887C120.719 61.7887 118.231 59.3005 118.231 56.231V-19.9421H110.385V56.231L110.385 56.2859V68.6539Z" fill="black"/>
<path fill-rule="evenodd" clip-rule="evenodd" d="M93.3305 66.7143V125.113C92.3518 125.293 91.2572 125.375 90.0657 125.363C87.7577 125.338 85.3563 124.958 83.2384 124.478C81.626 124.112 80.2835 122.515 80.3004 120.246L80.724 63.2762C83.4348 64.5491 89.6003 66.5217 93.3305 66.7143ZM110.331 68.6564C110.331 71.8894 112.371 74.6458 115.234 75.7082V105.098C115.234 114.288 121.824 122.155 130.871 123.766L135.765 124.637C137.695 124.981 139.1 126.659 139.1 128.618C139.1 130.545 137.791 132.046 136.094 132.329C127.899 133.694 113.684 135.456 102.708 133.794C101.982 133.684 101.177 132.96 101.177 131.68V47.6496C101.177 45.3487 99.3114 43.4835 97.0105 43.4835C82.0218 43.4835 70.0139 31.0671 70.5151 16.0868L72.2955 -37.1271C72.3361 -38.3388 72.7957 -39.4989 73.596 -40.4095L79.3809 -46.9924C81.0525 -48.8946 81.8934 -51.3866 81.7162 -53.9126L80.1397 -76.3779C79.729 -82.2292 83.0248 -87.7117 88.3849 -90.0939C95.906 -93.4367 104.671 -89.5707 107.273 -81.7626L118.645 -47.6469C118.919 -46.8268 119.419 -46.1009 120.088 -45.5534C125.914 -40.7871 129.292 -33.6577 129.292 -26.1309V56.2335C129.292 59.3029 126.804 61.7912 123.734 61.7912C120.665 61.7912 118.177 59.3029 118.177 56.2335V-19.9397H110.33V56.2335L110.331 56.2883V68.6564Z" fill="#F2FE67"/>
</g>
</svg>
