<svg width="113" height="28" viewBox="0 0 113 28" fill="none" xmlns="http://www.w3.org/2000/svg">
<g clip-path="url(#clip0)">
<path d="M5.07083 20.8094C4.20691 20.3587 3.56836 19.7577 3.11762 18.9313C2.66688 18.105 2.44151 17.1659 2.44151 16.0766L2.40395 10.7429H0V7.02425H2.44151V3.3432L7.39965 2.25391L7.36209 7.02425H12.5456V10.7429H7.32453L7.36209 15.2503C7.36209 15.7386 7.43721 16.1893 7.62502 16.4898C7.81283 16.8279 8.0382 17.0908 8.33869 17.241C8.63919 17.4288 8.97724 17.504 9.35286 17.504C9.87872 17.504 10.367 17.3913 10.7802 17.1659C11.1934 16.9405 11.6066 16.5649 12.0197 16.1142L13.2217 19.3069C12.6583 19.983 11.9071 20.5089 11.0056 20.8845C10.1041 21.2601 9.12749 21.448 8.15089 21.448C6.94891 21.4855 5.93475 21.2601 5.07083 20.8094Z" fill="black"/>
<path d="M15.6257 4.69522C15.0998 4.20692 14.8369 3.5308 14.8369 2.70445C14.8369 2.17858 14.9496 1.72784 15.175 1.31466C15.4003 0.901482 15.7384 0.563426 16.1891 0.338056C16.6399 0.112685 17.1282 0 17.654 0C18.518 0 19.1941 0.262932 19.7199 0.751235C20.2458 1.23954 20.5087 1.91565 20.5087 2.70445C20.5087 3.23031 20.396 3.71861 20.1707 4.13179C19.9453 4.54497 19.6072 4.88303 19.1565 5.1084C18.7058 5.33377 18.2175 5.44645 17.654 5.44645C16.8277 5.44645 16.1516 5.18352 15.6257 4.69522ZM15.2125 7.02405H20.1331V20.9595H15.2125V7.02405Z" fill="black"/>
<path d="M34.7068 7.21186C35.3454 7.54992 35.8337 8.07578 36.2093 8.75189C36.5474 9.428 36.7352 10.2168 36.7352 11.1558V20.9594H31.777V12.7334C31.777 12.0949 31.6268 11.6066 31.2887 11.231C30.9882 10.8929 30.5375 10.7051 29.9741 10.7051C29.5233 10.7051 29.1477 10.8178 28.8096 11.0056C28.4716 11.1934 28.2087 11.4939 27.9833 11.8695C27.7955 12.2451 27.6828 12.6959 27.6828 13.2217V20.9219H22.7622V7.02405H26.8564L27.6452 9.61581H27.6828C28.1711 8.67677 28.8096 7.9631 29.5984 7.43723C30.3872 6.91137 31.3263 6.64844 32.3404 6.64844C33.2795 6.686 34.0683 6.87381 34.7068 7.21186Z" fill="black"/>
<path d="M42.1068 26.8936C41.2429 26.7058 40.4541 26.4804 39.7405 26.1424C39.0268 25.8043 38.4258 25.4287 37.9375 24.9779L39.4775 21.3345C39.8531 21.7101 40.3039 22.0106 40.8298 22.2735C41.3556 22.5364 41.919 22.7242 42.4825 22.8745C43.0459 23.0247 43.6469 23.0999 44.2479 23.0999C45.0367 23.0999 45.7503 22.9496 46.3513 22.6867C46.9523 22.4238 47.403 22.0106 47.7411 21.4847C48.0792 20.9588 48.2294 20.3203 48.2294 19.6442V18.4798H48.1918C47.7411 19.3812 47.1777 20.0949 46.4264 20.5832C45.6752 21.0715 44.8489 21.3345 43.9474 21.3345C42.9332 21.3345 42.0693 21.1091 41.3932 20.6959C40.7171 20.2827 40.1536 19.6817 39.7405 18.8929C39.3273 18.1041 39.1395 17.2027 39.1395 16.1509V7.02344H44.0976V15.0992C44.0976 15.55 44.1727 15.9631 44.323 16.3012C44.4732 16.6392 44.6986 16.9022 44.9615 17.09C45.2245 17.2778 45.5625 17.3529 45.9381 17.3529C46.3513 17.3529 46.6894 17.2402 47.065 17.0524C47.4031 16.8646 47.666 16.6017 47.8914 16.2261C48.0792 15.8504 48.1918 15.4373 48.1918 14.9865V7.02344H53.1124V19.832C53.1124 21.2969 52.7744 22.6116 52.0607 23.7008C51.3846 24.7901 50.3704 25.6541 49.0933 26.255C47.8162 26.856 46.3138 27.1565 44.661 27.1565C43.8347 27.1565 42.9332 27.0814 42.1068 26.8936Z" fill="black"/>
<path d="M55.7041 7.02165H59.6105L60.3617 9.68853H60.3993C60.7749 8.74949 61.3759 7.99825 62.2398 7.47239C63.1037 6.94653 64.0428 6.68359 65.0569 6.68359C66.1087 6.68359 67.0101 6.94653 67.6862 7.47239C68.3624 7.99825 68.8882 8.74949 69.1512 9.76365H69.1887C69.6395 8.74949 70.3156 7.99825 71.1795 7.47239C72.0434 6.94653 72.9824 6.68359 74.0342 6.68359C74.8981 6.68359 75.6493 6.8714 76.2879 7.24702C76.9264 7.62264 77.4147 8.18606 77.7152 8.9373C78.0533 9.68853 78.2035 10.5525 78.2035 11.5291V20.957H73.3205L73.2829 12.731C73.2829 12.0925 73.1327 11.6042 72.7946 11.3037C72.4941 10.9656 72.0434 10.8154 71.5175 10.8154C71.0668 10.8154 70.7287 10.9281 70.3907 11.1159C70.0902 11.3037 69.8273 11.6042 69.677 11.9798C69.5268 12.3554 69.4516 12.8062 69.4516 13.2945L69.4141 20.957H64.4935V12.731C64.4935 12.0925 64.3433 11.6042 64.0428 11.3037C63.7423 10.9656 63.2915 10.8154 62.7281 10.8154C62.052 10.8154 61.5261 11.0408 61.1881 11.4915C60.8125 11.9422 60.6246 12.5432 60.6246 13.2945V20.957H55.6665V7.02165H55.7041Z" fill="black"/>
<path d="M82.4104 20.811C81.6967 20.473 81.0957 20.0222 80.7201 19.4212C80.3069 18.8202 80.1191 18.1441 80.1191 17.3553C80.1191 16.1158 80.645 15.1016 81.6967 14.2753C82.7485 13.4865 84.2509 12.9606 86.2041 12.7728L88.5705 12.5474C88.871 12.5099 89.0964 12.3972 89.3218 12.2094C89.5471 12.0216 89.6223 11.7962 89.6223 11.4957C89.6223 11.1952 89.5471 10.9323 89.3969 10.7069C89.2466 10.4815 89.0213 10.2937 88.7208 10.181C88.4203 10.0308 88.1198 9.99324 87.7442 9.99324C87.2934 9.99324 86.9178 10.1059 86.5798 10.2937C86.2417 10.4815 85.9788 10.7445 85.791 11.1201C85.6032 11.4581 85.4529 11.8713 85.4153 12.2845L80.645 11.646C80.7201 10.6693 81.0582 9.76787 81.6216 8.97907C82.2226 8.19028 83.0114 7.58929 84.0256 7.13855C85.0397 6.72537 86.2417 6.5 87.5939 6.5C88.9837 6.5 90.1857 6.72537 91.2374 7.21367C92.2891 7.70197 93.0779 8.37809 93.6038 9.242C94.1672 10.1059 94.4302 11.1201 94.4302 12.2845V17.13C94.4302 17.4305 94.5053 17.6558 94.618 17.8436C94.7307 17.9939 94.9185 18.069 95.1438 18.069C95.2941 18.069 95.4443 18.0314 95.6321 17.9563C95.8199 17.8812 96.0078 17.7685 96.158 17.5807L97.0595 20.1349C96.6087 20.5105 96.0453 20.811 95.3692 21.0364C94.6931 21.2617 93.9794 21.3744 93.3033 21.3744C92.7023 21.3744 92.1389 21.2617 91.613 21.0739C91.1247 20.8486 90.674 20.5856 90.3359 20.2476C89.9979 19.9095 89.7725 19.4963 89.6974 19.0456L89.6598 18.7076H89.6223C89.3218 19.2334 88.9461 19.7217 88.4578 20.0973C88.0071 20.5105 87.4437 20.811 86.8427 21.0364C86.2041 21.2617 85.5656 21.3744 84.8519 21.3744C83.9504 21.2993 83.1616 21.1491 82.4104 20.811ZM88.2325 17.6934C88.6457 17.468 88.9461 17.1675 89.134 16.7919C89.3593 16.3787 89.472 15.9655 89.472 15.4772V15.0265L87.4812 15.2143C86.6173 15.2894 86.0163 15.4772 85.6407 15.7402C85.2651 16.0031 85.0773 16.3412 85.0773 16.7543C85.0773 17.13 85.2275 17.4305 85.5656 17.6558C85.9036 17.8812 86.3544 17.9939 86.9178 17.9939C87.4061 18.0314 87.8569 17.9188 88.2325 17.6934Z" fill="black"/>
<path d="M110.619 7.21186C111.258 7.54992 111.746 8.07578 112.122 8.75189C112.46 9.428 112.648 10.2168 112.648 11.1558V20.9594H107.69V12.7334C107.69 12.0949 107.539 11.6066 107.201 11.231C106.901 10.8929 106.45 10.7051 105.887 10.7051C105.436 10.7051 105.06 10.8178 104.722 11.0056C104.384 11.1934 104.121 11.4939 103.896 11.8695C103.708 12.2451 103.595 12.6959 103.595 13.2217V20.9219H98.6372V7.02405H102.731L103.52 9.61581H103.558C104.046 8.67677 104.685 7.9631 105.473 7.43723C106.262 6.91137 107.201 6.64844 108.215 6.64844C109.192 6.686 109.943 6.87381 110.619 7.21186Z" fill="black"/>
</g>
<defs>
<clipPath id="clip0">
<rect width="112.61" height="27.1571" fill="white"/>
</clipPath>
</defs>
</svg>
