<svg width="72" height="73" viewBox="0 0 72 73" fill="none" xmlns="http://www.w3.org/2000/svg">
<g clip-path="url(#clip0)">
<path fill-rule="evenodd" clip-rule="evenodd" d="M66.7801 28.4071C67.0272 28.1249 67.0696 27.7441 66.8893 27.4245C66.709 27.1058 66.337 26.904 65.9299 26.904H42.9211V1.4489C42.9211 1.04802 42.6284 0.691882 42.1942 0.563126C41.7615 0.438022 41.2803 0.562213 41.0007 0.880908L6.21992 44.6219C5.97276 44.9041 5.93043 45.2849 6.11071 45.6045C6.29099 45.9232 6.66304 46.125 7.07011 46.125H30.0789V71.5801C30.0789 71.9809 30.3716 72.3371 30.8058 72.4658C30.9187 72.4987 31.0342 72.5151 31.1491 72.5151C31.4757 72.5151 31.7929 72.3836 31.9993 72.148L66.7801 28.4071ZM55.5387 32.904H36.9211V15.652L17.4613 40.125H36.0789V57.377L55.5387 32.904Z" fill="black"/>
</g>
<defs>
<clipPath id="clip0">
<rect width="72" height="72" fill="white" transform="translate(0 0.515137)"/>
</clipPath>
</defs>
</svg>
