<svg width="42" height="47" viewBox="0 0 42 47" fill="none" xmlns="http://www.w3.org/2000/svg">
<path d="M24 30L33 21L42 30H24Z" fill="#181818"/>
<path d="M0 18L9 27L18 18H0Z" fill="#181818"/>
<path fill-rule="evenodd" clip-rule="evenodd" d="M21 0C13.268 0 7 6.26801 7 14V18H11V14C11 8.47715 15.4772 4 21 4C26.5228 4 31 8.47715 31 14V15H35V14C35 6.26801 28.732 0 21 0ZM35 30H31V33C31 38.5228 26.5228 43 21 43C15.4772 43 11 38.5228 11 33H7C7 40.732 13.268 47 21 47C28.732 47 35 40.732 35 33V30Z" fill="black"/>
</svg>
