<svg width="274" height="274" viewBox="0 0 274 274" fill="none" xmlns="http://www.w3.org/2000/svg">
<g clip-path="url(#clip0)">
<g clip-path="url(#clip1)">
<rect x="-142.07" y="-36" width="557.545" height="346" rx="4" stroke="black"/>
<rect x="-91.291" y="-2.75061" width="455.985" height="279.501" stroke="black"/>
<rect x="-31.7031" y="27.3816" width="336.807" height="219.237" stroke="black"/>
<rect x="31.5137" y="59.5916" width="210.375" height="154.817" stroke="black"/>
<rect x="88.5117" y="88.6848" width="96.3785" height="96.6306" stroke="black"/>
<path d="M39.2852 310H234.633L152.986 185.315H120.846L39.2852 310Z" stroke="black"/>
<path d="M39.2871 -36H234.635L152.988 88.6847H120.848L39.2871 -36Z" stroke="black"/>
<path d="M88.5117 88.6842L-142.071 -28.7272V302.726L88.5117 185.315V88.6842Z" stroke="black"/>
<path d="M184.891 88.6842L415.474 -28.7272V302.726L184.891 185.315V88.6842Z" stroke="black"/>
<path d="M184.891 118.068L415.474 72.0601V201.94L184.891 155.932V118.068Z" stroke="black"/>
<path d="M88.5117 118.068L-142.071 72.0601V201.94L88.5117 155.932V118.068Z" stroke="black"/>
</g>
<path fill-rule="evenodd" clip-rule="evenodd" d="M115.158 135.239C117.639 135.239 118.542 132.596 118.542 130.34C118.542 125.57 115.158 120.316 105.263 120.316C95.8189 120.316 88.3735 126.086 88.3735 131.823C88.3735 133.789 89.5338 135.433 91.8867 135.852L112.869 139.655C114.191 139.881 114.706 140.267 114.835 141.17C114.964 142.04 114.545 142.814 112.772 143.2L94.9809 146.971C93.5949 147.262 92.7247 147.294 92.0801 146.843C91.6611 146.552 91.5644 145.811 92.0478 145.07L93.8528 142.362C96.0767 139.043 93.6594 137.463 92.0478 137.463C89.6305 137.463 88.5024 139.494 88.5024 142.427C88.5024 149.84 95.561 152.902 102.684 152.902C109.936 152.902 117.285 149.002 117.285 141.814C117.285 140.138 116.157 138.495 114.481 138.076L111.87 137.463C110.226 137.109 109.549 136.883 109.517 135.368L109.485 133.789C109.42 130.824 106.745 128.181 102.813 129.986L94.0784 134.015C92.6602 134.691 91.4032 134.466 90.9842 132.951C90.5809 131.493 91.9391 130.841 93.5933 130.047L93.7883 129.953L108.228 122.991C110.71 121.799 111.934 122.83 111.934 124.796V131.823C111.934 133.563 113.191 135.239 115.158 135.239ZM61.8477 125.345C59.4626 125.151 58.3989 126.247 58.3989 127.408C58.3989 128.6 59.3337 129.438 61.8477 129.761L76.6095 131.565C79.736 131.952 80.8318 133.822 80.8318 135.82C80.8318 137.335 80.2517 139.269 76.6095 140.429L60.5262 145.554C58.5923 146.166 58.27 147.004 58.27 148.036C58.27 148.938 59.3981 150.646 61.3964 149.937L78.2533 144.039C81.7988 142.814 83.6682 143.781 83.7649 146.263C83.8938 148.616 82.7335 149.937 80.5417 150.969C78.1566 152.097 71.9683 153.031 66.4245 152.999C60.9452 152.999 55.9816 151.774 55.9816 147.649C55.9816 146.134 57.013 144.651 58.8824 143.33L71.1625 134.789C72.8063 133.628 72.0005 132.113 70.0989 132.887L61.8477 136.271C57.8188 137.915 54.3056 135.949 54.3056 132.178C54.3056 124.668 63.2981 120.413 73.8699 120.413C81.2508 120.413 83.7649 122.09 83.7649 124.7C83.7649 126.022 83.0558 127.246 79.9616 126.956L61.8477 125.345ZM43.0881 145.263C44.7641 149.743 43.8616 152.934 39.446 152.934C35.4815 152.934 34.6758 150.678 34.5791 146.294L34.1278 126.118C34.0956 123.507 33.6444 122.443 32.5163 122.443C31.0981 122.443 30.7113 123.797 30.7113 125.634V127.439C30.7113 133.144 29.5188 135.852 25.7477 135.723C23.1048 135.658 21.1387 133.402 21.1387 130.824C21.1387 125.119 25.6833 120.993 33.1287 120.993H47.2459C51.5326 120.993 52.8864 123.475 52.8864 125.57C52.8864 130.308 46.7947 132.693 42.9914 128.503L38.3823 123.346C37.9633 122.895 37.5121 122.701 37.1576 122.701C36.0295 122.701 35.6427 123.636 36.4485 125.989L43.0881 145.263ZM142.65 145.263C144.326 149.743 143.424 152.934 139.008 152.934C135.043 152.934 134.238 150.678 134.141 146.295L133.69 126.118C133.658 123.507 133.206 122.444 132.078 122.444C130.66 122.444 130.273 123.797 130.273 125.635V127.44C130.273 133.144 129.081 135.852 125.31 135.723C122.667 135.626 120.701 133.37 120.701 130.824C120.701 125.087 125.245 120.961 132.691 120.961L146.808 120.961C151.095 120.961 152.448 123.443 152.448 125.538C152.448 130.276 146.357 132.661 142.553 128.471L137.944 123.314C137.525 122.863 137.074 122.669 136.719 122.669C135.591 122.669 135.205 123.604 136.01 125.957L142.65 145.263ZM185.743 140.493L186.194 130.437C186.484 124.442 185.807 120.348 180.392 120.38C175.912 120.38 175.977 124.216 177.491 128.825L182.165 142.878C182.455 143.812 182.906 145.65 182.906 146.81C182.906 149.163 181.843 150.903 179.522 150.903C178.039 150.903 176.782 149.807 177.105 147.712L177.491 145.36C178.007 141.943 176.234 138.559 174.558 136.335L166.887 126.182C166.626 125.843 166.379 125.52 166.143 125.211L166.143 125.211C163.642 121.941 162.448 120.38 160.151 120.38C157.476 120.38 155.768 122.185 155.671 126.15L155.22 145.231C155.123 149.034 156.025 152.998 160.119 152.998C163.6 152.998 164.663 150.323 164.663 148.228C164.663 148.055 164.676 147.867 164.69 147.661C164.755 146.684 164.847 145.315 163.729 143.265L158.282 133.499C157.573 132.241 157.411 131.178 157.411 130.437C157.411 129.534 157.895 129.083 158.926 129.083C159.668 129.083 160.183 129.663 161.247 131.242L172.044 146.907C174.655 150.678 176.621 152.998 179.554 152.998C184.324 152.998 185.324 149.743 185.743 140.493ZM219.714 148.68C219.714 151.291 217.2 152.967 209.819 152.967C199.248 152.967 190.255 148.712 190.255 141.202C190.255 137.464 193.768 135.465 197.797 137.109L206.048 140.493C207.95 141.267 208.756 139.752 207.112 138.592L194.832 130.05C192.963 128.729 191.931 127.246 191.931 125.731C191.931 121.606 196.895 120.381 202.374 120.381C207.886 120.349 214.074 121.284 216.491 122.412C218.683 123.443 219.843 124.764 219.714 127.117C219.585 129.599 217.748 130.566 214.203 129.341L197.314 123.443C195.283 122.734 194.187 124.442 194.187 125.345C194.187 126.376 194.51 127.214 196.443 127.826L212.527 132.951C216.169 134.112 216.749 136.045 216.749 137.56C216.749 139.526 215.685 141.428 212.527 141.815L197.765 143.62C195.251 143.942 194.316 144.78 194.316 145.973C194.316 147.133 195.38 148.229 197.765 148.035L215.911 146.424C219.005 146.134 219.714 147.391 219.714 148.68ZM236.314 123.314C236.7 122.863 237.152 122.669 237.538 122.669C238.634 122.669 239.053 123.604 238.248 125.957L231.608 145.263C229.932 149.743 230.834 152.934 235.25 152.934C239.214 152.934 240.02 150.678 240.117 146.295L240.568 126.118C240.6 123.507 241.052 122.444 242.18 122.444C243.566 122.444 243.985 123.83 243.985 125.635V127.44C243.985 133.112 245.209 135.852 248.948 135.723C251.591 135.658 253.557 133.37 253.557 130.824C253.557 125.087 249.045 120.961 241.567 120.961H227.45C223.163 120.961 221.81 123.443 221.81 125.538C221.81 130.276 227.901 132.693 231.705 128.471L236.314 123.314Z" fill="black"/>
</g>
<defs>
<clipPath id="clip0">
<rect width="274" height="274" fill="white"/>
</clipPath>
<clipPath id="clip1">
<rect width="274" height="434" fill="white" transform="translate(0 -80)"/>
</clipPath>
</defs>
</svg>
