<svg width="424" height="424" viewBox="0 0 424 424" fill="none" xmlns="http://www.w3.org/2000/svg">
<rect x="0.5" y="0.5" width="423" height="423" rx="15.5" stroke="black"/>
<path fill-rule="evenodd" clip-rule="evenodd" d="M288.554 79.3832C295.085 79.3832 297.459 72.4565 297.459 66.5193C297.459 53.8534 288.554 40 262.432 40C237.696 40 217.906 55.2387 217.906 70.2795C217.906 75.623 221.073 79.9769 227.207 80.9664L282.617 91.0596C285.982 91.6533 287.367 92.6429 287.763 95.0177C288.158 97.3926 287.169 99.3716 282.42 100.361L235.519 110.454C231.957 111.246 229.78 111.246 227.999 110.059C226.811 109.267 226.416 107.288 227.801 105.309L232.55 98.1842C238.487 89.4764 231.957 85.3204 227.801 85.3204C221.468 85.3204 218.5 90.6638 218.5 98.3821C218.5 117.975 237.102 126.089 255.902 126.089C275.097 126.089 294.491 115.798 294.491 96.7989C294.491 92.247 291.721 87.8931 287.169 86.9036L280.243 85.3204C275.889 84.3308 274.306 83.7371 274.108 79.779L273.91 75.623C273.712 67.7068 266.588 60.7801 256.298 65.5298L233.144 76.2167C229.582 77.9979 226.02 77.4041 225.03 73.446C223.871 69.5815 227.617 67.7922 232.031 65.6835L232.352 65.5298L270.348 47.1246C276.878 43.9581 280.045 46.7288 280.045 51.8743V70.2795C280.045 74.8314 283.409 79.3832 288.554 79.3832ZM147.457 53.0618C141.124 52.4681 138.354 55.4367 138.354 58.4053C138.354 61.5717 140.926 63.7487 147.457 64.5403L186.442 69.488C194.753 70.4775 197.524 75.4251 197.524 80.7686C197.524 84.7267 195.941 89.8722 186.442 93.0387L144.092 106.496C138.947 108.08 138.156 110.257 138.156 113.027C138.156 115.402 141.124 119.954 146.467 117.975L190.993 102.34C200.294 99.1738 205.242 101.747 205.637 108.277C206.033 114.413 202.867 117.975 197.128 120.745C190.795 123.714 174.568 126.287 159.924 126.089C145.478 126.089 132.417 122.922 132.417 112.038C132.417 108.08 135.187 104.121 139.937 100.559L172.391 77.9979C176.745 75.0293 174.568 70.8733 169.621 73.0503L147.852 81.956C137.166 86.3099 127.865 81.1644 127.865 71.2691C127.865 51.4786 151.612 40.198 179.515 40.198C198.909 40.198 205.637 44.7498 205.637 51.4786C205.637 55.0409 203.856 58.2074 195.545 57.4157L147.457 53.0618ZM97.9828 105.705C102.534 117.579 99.9617 125.891 88.4839 125.891C77.9955 125.891 75.8187 119.954 75.6208 108.277L74.2356 55.0409C74.0377 48.1142 72.8503 45.3435 70.0798 45.3435C66.3198 45.3435 65.3304 48.9058 65.3304 53.6555V58.4052C65.3304 73.4461 62.1641 80.5707 52.2694 80.3728C45.1452 80.1749 40 74.2377 40 67.5089C40 52.4681 51.8736 41.5833 71.663 41.5833H108.867C120.147 41.5833 123.709 48.1142 123.709 53.6555C123.709 66.1236 107.68 72.4565 97.587 61.3738L85.5155 47.7184C84.3281 46.5309 83.1408 45.9372 82.1513 45.9372C79.1829 45.9372 78.1934 48.51 80.3703 54.645L97.9828 105.705ZM341.986 45.9372C340.996 45.9372 339.809 46.5309 338.621 47.7184L326.352 61.3738C316.26 72.4565 300.23 66.1236 300.23 53.6555C300.23 48.1142 303.792 41.5833 315.072 41.5833H352.276C372.065 41.5833 383.939 52.4681 383.939 67.5089C383.939 74.2377 378.794 80.1749 371.67 80.3728C361.775 80.7686 358.609 73.4461 358.609 58.4052V53.8534C358.609 49.1037 357.619 45.5414 353.859 45.5414C350.891 45.5414 349.704 48.3121 349.704 55.2388L348.714 108.277C348.516 119.756 346.339 125.891 335.851 125.891C324.175 125.891 321.801 117.579 326.352 105.705L343.965 54.8429C345.944 48.51 344.954 45.9372 341.986 45.9372ZM128.458 195.95L129.645 169.431C130.239 153.598 128.656 142.713 114.605 142.515C102.93 142.515 103.128 152.609 107.085 164.879L119.355 202.085C120.146 204.46 121.334 209.407 121.334 212.376C121.334 218.511 118.563 223.063 112.429 223.063C108.669 223.063 105.304 220.292 106.096 214.751L107.085 208.616C108.471 199.71 103.919 190.804 99.3675 184.867L79.1824 158.15C78.3082 157.02 77.4937 155.954 76.7278 154.952C70.3855 146.652 67.3754 142.713 61.372 142.713C54.2478 142.713 49.6963 147.463 49.4984 157.952L48.311 208.418C47.9152 218.313 50.4879 228.802 61.1741 228.802C70.2772 228.802 73.0477 221.678 73.0477 216.136C73.0477 215.719 73.0737 215.265 73.1022 214.77L73.1022 214.77C73.249 212.212 73.4593 208.546 70.4751 203.074L56.0289 177.347C54.0499 173.982 53.6542 171.212 53.6542 169.233C53.6542 166.858 54.8415 165.67 57.612 165.67C59.591 165.67 60.9762 167.254 63.7467 171.41L92.4413 212.97C99.3675 222.865 104.513 229 112.231 229C124.698 229 127.468 220.292 128.458 195.95ZM218.104 217.521C218.104 224.448 211.376 228.802 191.982 228.802C164.079 228.802 140.332 217.521 140.332 197.731C140.332 187.835 149.633 182.69 160.319 187.044L182.087 195.95C187.035 197.929 189.212 193.971 184.858 191.002L152.403 168.441C147.456 164.878 144.883 161.118 144.883 156.962C144.883 146.077 157.944 142.911 172.391 142.911C187.035 142.713 203.262 145.286 209.595 148.254C215.333 151.025 218.5 154.389 218.104 160.722C217.708 167.253 212.959 169.826 203.46 166.66L158.934 151.025C153.591 149.244 150.622 153.598 150.622 155.973C150.622 158.743 151.414 160.92 156.559 162.504L198.908 175.961C208.407 178.93 209.99 184.075 209.99 188.231C209.99 193.377 207.22 198.522 198.908 199.512L160.121 204.262C153.393 205.053 151.018 207.23 151.018 210.397C151.018 213.365 153.789 216.334 160.121 215.74L208.011 211.584C216.125 210.792 218.104 214.157 218.104 217.521ZM261.84 150.629C262.83 149.442 264.017 148.848 265.007 148.848C267.975 148.848 269.162 151.421 266.985 157.952L249.373 208.814C244.821 220.688 247.196 229 258.872 229C269.36 229 271.537 222.865 271.735 211.386L272.922 158.15C272.922 151.223 274.11 148.452 277.078 148.452C280.838 148.452 281.827 152.015 281.827 156.764V161.316C281.827 176.357 284.994 183.68 294.888 183.284C302.013 183.086 307.158 177.149 307.158 170.42C307.158 155.379 295.284 144.494 275.495 144.494H238.291C227.011 144.494 223.449 151.025 223.449 156.566C223.449 169.035 239.478 175.367 249.571 164.285L261.84 150.629Z" fill="black"/>
</svg>
